<svg width="218" height="53" viewBox="0 0 218 53" fill="none" xmlns="http://www.w3.org/2000/svg">
<g clip-path="url(#clip0_7_716)">
<g clip-path="url(#clip1_7_716)">
<g clip-path="url(#clip2_7_716)">
<path d="M26.5601 0.790039C31.2771 0.790039 35.6274 1.95237 39.6109 4.27702C43.5944 6.60167 46.7485 9.75575 49.0731 13.7392C51.3978 17.7227 52.5601 22.073 52.5601 26.79C52.5601 31.507 51.3978 35.8573 49.0731 39.8408C46.7485 43.8243 43.5944 46.9784 39.6109 49.303C35.6274 51.6277 31.2771 52.79 26.5601 52.79C21.8431 52.79 17.4928 51.6277 13.5093 49.303C9.52577 46.9784 6.37169 43.8243 4.04704 39.8408C1.72239 35.8573 0.560059 31.507 0.560059 26.79C0.560059 22.073 1.72239 17.7227 4.04704 13.7392C6.37169 9.75575 9.52577 6.60167 13.5093 4.27702C17.4928 1.95237 21.8431 0.790039 26.5601 0.790039ZM35.8361 18.428C35.791 18.4506 35.6838 18.5578 35.5145 18.7496C35.3453 18.9415 35.1929 19.0487 35.0575 19.0712C35.1026 19.0712 35.1534 19.0148 35.2098 18.902C35.2663 18.7891 35.3227 18.665 35.3791 18.5296C35.4355 18.3942 35.475 18.3152 35.4976 18.2926C35.633 18.1346 35.8813 17.9653 36.2424 17.7848C36.5584 17.6494 37.1452 17.514 38.0028 17.3785C38.7702 17.198 39.3457 17.3221 39.7294 17.7509C39.6842 17.7058 39.7914 17.5591 40.051 17.3108C40.3105 17.0626 40.4742 16.9272 40.5419 16.9046C40.6096 16.8594 40.7789 16.8087 41.0497 16.7522C41.3205 16.6958 41.4898 16.6112 41.5575 16.4983L41.6252 15.7535C41.3544 15.7761 41.1569 15.6971 41.0328 15.5166C40.9086 15.336 40.8353 15.099 40.8127 14.8056C40.8127 14.8508 40.745 14.941 40.6096 15.0765C40.6096 14.9185 40.5588 14.8282 40.4572 14.8056C40.3557 14.7831 40.2259 14.7943 40.0679 14.8395C39.9099 14.8846 39.8084 14.8959 39.7632 14.8733C39.5375 14.8056 39.3683 14.721 39.2554 14.6194C39.1426 14.5179 39.0523 14.3317 38.9846 14.0608C38.9169 13.79 38.8717 13.6207 38.8492 13.553C38.804 13.4402 38.6968 13.316 38.5275 13.1806C38.3583 13.0452 38.2511 12.9324 38.2059 12.8421C38.1834 12.7969 38.1552 12.7349 38.1213 12.6559C38.0874 12.5769 38.0536 12.5035 38.0197 12.4358C37.9859 12.3681 37.9407 12.3061 37.8843 12.2496C37.8279 12.1932 37.7658 12.165 37.6981 12.165C37.6304 12.165 37.5514 12.2214 37.4611 12.3343C37.3709 12.4471 37.2862 12.56 37.2072 12.6728C37.1282 12.7857 37.0775 12.8421 37.0549 12.8421C36.9872 12.7969 36.9195 12.78 36.8518 12.7913C36.7841 12.8026 36.7333 12.8139 36.6994 12.8252C36.6656 12.8364 36.6148 12.8703 36.5471 12.9267C36.4794 12.9831 36.423 13.0226 36.3778 13.0452C36.3101 13.0903 36.2142 13.1242 36.09 13.1468C35.9659 13.1693 35.87 13.1919 35.8023 13.2145C36.1408 13.1016 36.1295 12.9775 35.7684 12.8421C35.5427 12.7518 35.3622 12.718 35.2268 12.7405C35.4299 12.6502 35.5145 12.5148 35.4807 12.3343C35.4468 12.1537 35.3509 11.9957 35.1929 11.8603H35.3622C35.3396 11.77 35.2437 11.6741 35.0744 11.5726C34.9052 11.471 34.7077 11.3751 34.482 11.2848C34.2563 11.1945 34.1096 11.1268 34.0419 11.0817C33.8613 10.9688 33.4776 10.8616 32.8908 10.7601C32.304 10.6585 31.9316 10.6529 31.7736 10.7432C31.6608 10.8785 31.61 10.997 31.6213 11.0986C31.6326 11.2002 31.6777 11.3581 31.7567 11.5726C31.8357 11.787 31.8752 11.928 31.8752 11.9957C31.8978 12.1311 31.8357 12.2778 31.689 12.4358C31.5423 12.5938 31.469 12.7292 31.469 12.8421C31.469 13.0001 31.6269 13.175 31.9429 13.3668C32.2589 13.5587 32.3717 13.8013 32.2815 14.0947C32.2137 14.2752 32.0332 14.4558 31.7398 14.6364C31.4464 14.8169 31.2658 14.9523 31.1981 15.0426C31.0853 15.2232 31.0683 15.4319 31.1473 15.6689C31.2263 15.9059 31.3448 16.0921 31.5028 16.2275C31.5479 16.2726 31.5649 16.3178 31.5536 16.3629C31.5423 16.4081 31.5028 16.4588 31.4351 16.5153C31.3674 16.5717 31.3053 16.6168 31.2489 16.6507C31.1925 16.6845 31.1191 16.724 31.0289 16.7692L30.9273 16.8369C30.679 16.9497 30.4477 16.882 30.2333 16.6338C30.0189 16.3855 29.8665 16.0921 29.7762 15.7535C29.6183 15.1893 29.4377 14.8508 29.2346 14.7379C28.7155 14.5574 28.3882 14.5686 28.2528 14.7718C28.14 14.4784 27.6773 14.185 26.8648 13.8916C26.3006 13.6884 25.646 13.6433 24.9012 13.7561C25.0367 13.7336 25.0367 13.5643 24.9012 13.2483C24.7433 12.9098 24.5289 12.7744 24.258 12.8421C24.3257 12.7067 24.3709 12.5092 24.3934 12.2496C24.416 11.9901 24.4273 11.8377 24.4273 11.7926C24.495 11.4992 24.6304 11.2397 24.8335 11.014C24.8561 10.9914 24.9351 10.8955 25.0705 10.7262C25.2059 10.557 25.3131 10.4046 25.3921 10.2692C25.4711 10.1338 25.4768 10.0661 25.4091 10.0661C26.199 10.1564 26.7632 10.0322 27.1018 9.69369C27.2146 9.58084 27.3444 9.389 27.4911 9.11816C27.6378 8.84733 27.7563 8.65549 27.8466 8.54264C28.0497 8.40723 28.2077 8.34516 28.3205 8.35645C28.4334 8.36773 28.597 8.4298 28.8114 8.54264C29.0258 8.65549 29.1894 8.71192 29.3023 8.71192C29.6183 8.73448 29.7932 8.61035 29.827 8.33952C29.8609 8.06869 29.7762 7.84299 29.5731 7.66244C29.844 7.68501 29.8778 7.49317 29.6747 7.08692C29.5844 6.92893 29.4941 6.82737 29.4039 6.78223C29.133 6.69195 28.8283 6.74837 28.4898 6.9515C28.3092 7.04178 28.3318 7.13205 28.5575 7.22233C28.5349 7.19976 28.4277 7.31825 28.2359 7.5778C28.044 7.83735 27.8578 8.03483 27.6773 8.17025C27.4967 8.30567 27.3162 8.24924 27.1356 8.00098C27.1131 7.97841 27.051 7.82606 26.9494 7.54395C26.8479 7.26183 26.7407 7.10948 26.6278 7.08692C26.4473 7.08692 26.2667 7.25619 26.0861 7.59473C26.1539 7.41417 26.0297 7.2449 25.7137 7.08692C25.3978 6.92893 25.1269 6.83865 24.9012 6.81608C25.3301 6.54525 25.2398 6.24056 24.6304 5.90202C24.4724 5.81174 24.2411 5.75532 23.9364 5.73275C23.6317 5.71018 23.4117 5.75532 23.2762 5.86816C23.1634 6.02615 23.1013 6.15593 23.09 6.25749C23.0788 6.35905 23.1352 6.44933 23.2593 6.52832C23.3835 6.60731 23.5019 6.66938 23.6148 6.71452C23.7276 6.75966 23.8574 6.8048 24.0041 6.84994C24.1508 6.89507 24.2467 6.92893 24.2919 6.9515C24.6078 7.17719 24.6981 7.33518 24.5627 7.42546C24.5176 7.44803 24.4216 7.48752 24.2749 7.54395C24.1282 7.60037 23.9985 7.65115 23.8856 7.69629C23.7728 7.74143 23.7051 7.78657 23.6825 7.83171C23.6148 7.92198 23.6148 8.07997 23.6825 8.30567C23.7502 8.53136 23.7276 8.68935 23.6148 8.77962C23.5019 8.66678 23.4004 8.46929 23.3101 8.18718C23.2198 7.90506 23.1408 7.71886 23.0731 7.62858C23.2311 7.83171 22.949 7.89942 22.2268 7.83171L21.8882 7.79785C21.7979 7.79785 21.6174 7.82042 21.3466 7.86556C21.0757 7.9107 20.8444 7.92198 20.6525 7.89942C20.4607 7.87685 20.3084 7.78657 20.1955 7.62858C20.1052 7.44803 20.1052 7.22233 20.1955 6.9515C20.2181 6.86122 20.2632 6.83865 20.3309 6.88379C20.2407 6.81608 20.1165 6.70888 19.9585 6.56218C19.8006 6.41547 19.6877 6.31955 19.62 6.27442C18.5818 6.61296 17.521 7.07563 16.4377 7.66244C16.5731 7.68501 16.7085 7.67372 16.844 7.62858C16.9568 7.58344 17.1035 7.51009 17.2841 7.40853C17.4646 7.30697 17.5775 7.2449 17.6226 7.22233C18.39 6.90636 18.8639 6.82737 19.0445 6.98535L19.2137 6.81608C19.5297 7.17719 19.7554 7.45931 19.8908 7.66244C19.7328 7.57216 19.3943 7.56087 18.8752 7.62858C18.4238 7.764 18.1756 7.89942 18.1304 8.03483C18.2884 8.30567 18.3448 8.50879 18.2997 8.64421C18.2094 8.5765 18.0796 8.46365 17.9104 8.30567C17.7411 8.14768 17.5775 8.02355 17.4195 7.93327C17.2615 7.84299 17.0922 7.78657 16.9117 7.764C16.5506 7.764 16.3023 7.77528 16.1669 7.79785C12.8717 9.60341 10.2198 12.1086 8.2111 15.3134C8.36909 15.4714 8.5045 15.5617 8.61735 15.5843C8.70763 15.6068 8.76405 15.7084 8.78662 15.889C8.80919 16.0695 8.8374 16.1936 8.87126 16.2614C8.90511 16.3291 9.03489 16.2952 9.26058 16.1598C9.46371 16.3403 9.49756 16.5548 9.36214 16.803C9.38471 16.7805 9.88124 17.0851 10.8518 17.7171C11.2806 18.1008 11.5176 18.3377 11.5627 18.428C11.6304 18.6763 11.5176 18.8794 11.2242 19.0374C11.2016 18.9923 11.1 18.8907 10.9195 18.7327C10.7389 18.5747 10.6374 18.5296 10.6148 18.5973C10.547 18.7101 10.5527 18.9189 10.6317 19.2236C10.7107 19.5283 10.8292 19.6693 10.9872 19.6468C10.8292 19.6468 10.722 19.8273 10.6656 20.1884C10.6091 20.5496 10.5809 20.9502 10.5809 21.3903C10.5809 21.8304 10.5696 22.0956 10.547 22.1858L10.6148 22.2197C10.547 22.4905 10.6091 22.8798 10.801 23.3877C10.9928 23.8955 11.2354 24.1155 11.5289 24.0478C11.2354 24.1155 11.4611 24.6008 12.2059 25.5035C12.3413 25.6841 12.4316 25.7857 12.4768 25.8082C12.5445 25.8534 12.6799 25.938 12.883 26.0621C13.0861 26.1863 13.2554 26.2991 13.3908 26.4007C13.5262 26.5022 13.6391 26.6207 13.7294 26.7561C13.8196 26.869 13.9325 27.1229 14.0679 27.5179C14.2033 27.9128 14.3613 28.178 14.5419 28.3134C14.4967 28.4489 14.6039 28.6746 14.8635 28.9905C15.123 29.3065 15.2415 29.566 15.219 29.7692C15.1964 29.7692 15.1682 29.7805 15.1343 29.803C15.1005 29.8256 15.0723 29.8369 15.0497 29.8369C15.1174 29.9949 15.2923 30.1528 15.5744 30.3108C15.8565 30.4688 16.0315 30.6155 16.0992 30.7509C16.1217 30.8186 16.1443 30.9315 16.1669 31.0895C16.1894 31.2475 16.2233 31.3716 16.2684 31.4619C16.3136 31.5522 16.4039 31.5747 16.5393 31.5296C16.5844 31.0782 16.3136 30.3785 15.7268 29.4306C15.3882 28.8664 15.1964 28.5391 15.1512 28.4489C15.0835 28.336 15.0215 28.1611 14.965 27.9241C14.9086 27.6871 14.8578 27.5235 14.8127 27.4332C14.8578 27.4332 14.9256 27.4502 15.0158 27.484C15.1061 27.5179 15.202 27.5574 15.3036 27.6025C15.4052 27.6476 15.4898 27.6928 15.5575 27.7379C15.6252 27.7831 15.6478 27.8169 15.6252 27.8395C15.5575 27.9975 15.5801 28.1949 15.6929 28.4319C15.8058 28.6689 15.9412 28.8777 16.0992 29.0582C16.2571 29.2388 16.449 29.4532 16.6747 29.7015C16.9004 29.9497 17.0358 30.0964 17.0809 30.1416C17.2163 30.277 17.3743 30.497 17.5549 30.8017C17.7354 31.1064 17.7354 31.2588 17.5549 31.2588C17.758 31.2588 17.9837 31.3772 18.232 31.6142C18.4802 31.8512 18.6721 32.0713 18.8075 32.2744C18.9203 32.4549 19.0106 32.7483 19.0783 33.1546C19.146 33.5608 19.2025 33.8317 19.2476 33.9671C19.2927 34.1251 19.3887 34.2774 19.5354 34.4241C19.6821 34.5708 19.8231 34.678 19.9585 34.7457L20.5002 35.0166L20.9403 35.2535C21.0532 35.2987 21.2619 35.4172 21.5666 35.609C21.8713 35.8009 22.1139 35.9306 22.2945 35.9983C22.5202 36.0886 22.7007 36.1338 22.8361 36.1338C22.9716 36.1338 23.1352 36.1055 23.327 36.0491C23.5189 35.9927 23.6712 35.9532 23.7841 35.9306C24.1226 35.8855 24.4499 36.0548 24.7658 36.4384C25.0818 36.8221 25.3188 37.0591 25.4768 37.1494C26.2893 37.5782 26.9099 37.7023 27.3387 37.5218C27.2936 37.5443 27.2993 37.629 27.3557 37.7757C27.4121 37.9224 27.5024 38.0973 27.6265 38.3004C27.7506 38.5035 27.8522 38.6672 27.9312 38.7913C28.0102 38.9154 28.0723 39.0114 28.1174 39.0791C28.2302 39.2145 28.4334 39.3838 28.7268 39.5869C29.0202 39.79 29.2233 39.9593 29.3361 40.0947C29.4716 40.0044 29.5506 39.9029 29.5731 39.79C29.5054 39.9706 29.5844 40.1962 29.8101 40.4671C30.0358 40.7379 30.2389 40.8508 30.4195 40.8056C30.7354 40.7379 30.8934 40.3768 30.8934 39.7223C30.1938 40.0608 29.6408 39.8577 29.2346 39.1129C29.2346 39.0904 29.2064 39.0283 29.1499 38.9267C29.0935 38.8252 29.0484 38.7292 29.0145 38.639C28.9807 38.5487 28.9525 38.4528 28.9299 38.3512C28.9073 38.2496 28.9073 38.165 28.9299 38.0973C28.9525 38.0296 29.0089 37.9957 29.0992 37.9957C29.3023 37.9957 29.4151 37.9562 29.4377 37.8772C29.4603 37.7982 29.4377 37.6572 29.37 37.4541C29.3023 37.2509 29.2572 37.1042 29.2346 37.014C29.212 36.8334 29.0879 36.6077 28.8622 36.3369C28.6365 36.066 28.5011 35.8968 28.4559 35.8291C28.3431 36.0322 28.1625 36.1225 27.9143 36.0999C27.666 36.0773 27.4854 35.9758 27.3726 35.7952C27.3726 35.8178 27.3557 35.8798 27.3218 35.9814C27.288 36.083 27.271 36.1563 27.271 36.2015C26.9776 36.2015 26.8084 36.1902 26.7632 36.1676C26.7858 36.0999 26.814 35.9024 26.8479 35.5752C26.8817 35.2479 26.9212 34.994 26.9664 34.8134C26.9889 34.7232 27.051 34.5877 27.1525 34.4072C27.2541 34.2266 27.3387 34.063 27.4065 33.9163C27.4742 33.7696 27.5193 33.6285 27.5419 33.4931C27.5644 33.3577 27.5137 33.2505 27.3895 33.1715C27.2654 33.0925 27.0679 33.0643 26.7971 33.0869C26.3683 33.1094 26.0749 33.3351 25.9169 33.764C25.8943 33.8317 25.8604 33.9502 25.8153 34.1194C25.7702 34.2887 25.7137 34.4185 25.646 34.5088C25.5783 34.599 25.4768 34.678 25.3413 34.7457C25.1834 34.8134 24.9125 34.836 24.5289 34.8134C24.1452 34.7909 23.8743 34.7344 23.7163 34.6442C23.4229 34.4636 23.169 34.1364 22.9546 33.6624C22.7402 33.1884 22.633 32.7709 22.633 32.4098C22.633 32.1841 22.6612 31.8851 22.7177 31.5127C22.7741 31.1403 22.8079 30.8581 22.8192 30.6663C22.8305 30.4745 22.7684 30.198 22.633 29.8369C22.7007 29.7917 22.8023 29.6845 22.9377 29.5153C23.0731 29.346 23.186 29.2275 23.2762 29.1598C23.3214 29.1372 23.3722 29.1203 23.4286 29.109C23.485 29.0977 23.5358 29.0977 23.5809 29.109C23.6261 29.1203 23.6712 29.1034 23.7163 29.0582C23.7615 29.0131 23.7953 28.9454 23.8179 28.8551C23.7953 28.8325 23.7502 28.7987 23.6825 28.7535C23.6148 28.6858 23.5697 28.652 23.5471 28.652C23.7051 28.7197 24.0267 28.7028 24.5119 28.6012C24.9972 28.4996 25.3075 28.5166 25.4429 28.652C25.7815 28.9002 26.0297 28.8777 26.1877 28.5843C26.1877 28.5617 26.1595 28.4545 26.1031 28.2627C26.0466 28.0708 26.041 27.9185 26.0861 27.8056C26.199 28.415 26.5262 28.5166 27.0679 28.1103C27.1356 28.178 27.3105 28.2344 27.5927 28.2796C27.8748 28.3247 28.0723 28.3811 28.1851 28.4489C28.2528 28.494 28.3318 28.5561 28.4221 28.6351C28.5124 28.714 28.5744 28.7648 28.6083 28.7874C28.6421 28.81 28.6986 28.8043 28.7775 28.7705C28.8565 28.7366 28.9525 28.6633 29.0653 28.5504C29.291 28.8664 29.4264 29.1372 29.4716 29.3629C29.7198 30.2657 29.9342 30.7622 30.1148 30.8525C30.2728 30.9202 30.3969 30.9428 30.4872 30.9202C30.5775 30.8976 30.6282 30.7904 30.6395 30.5986C30.6508 30.4068 30.6508 30.2488 30.6395 30.1246C30.6282 30.0005 30.6113 29.8594 30.5887 29.7015L30.5549 29.4306V28.8213L30.521 28.5504C30.1825 28.4827 29.9737 28.3473 29.8947 28.1442C29.8157 27.941 29.8327 27.7323 29.9455 27.5179C30.0584 27.3035 30.2276 27.0947 30.4533 26.8916C30.4759 26.869 30.5662 26.8295 30.7242 26.7731C30.8822 26.7167 31.0571 26.6433 31.2489 26.553C31.4407 26.4627 31.5818 26.3725 31.6721 26.2822C32.146 25.8534 32.3153 25.4584 32.1799 25.0973C32.3379 25.0973 32.462 24.9957 32.5523 24.7926C32.5297 24.7926 32.4733 24.7588 32.383 24.691C32.2927 24.6233 32.2081 24.5669 32.1291 24.5218C32.0501 24.4766 31.9993 24.4541 31.9768 24.4541C32.1799 24.3412 32.2025 24.1607 32.0445 23.9124C32.1573 23.8447 32.242 23.7206 32.2984 23.54C32.3548 23.3594 32.4394 23.2466 32.5523 23.2015C32.7554 23.4723 32.9924 23.4949 33.2632 23.2692C33.4438 23.0886 33.4551 22.9081 33.2971 22.7275C33.4099 22.5695 33.6413 22.451 33.9911 22.372C34.3409 22.293 34.5497 22.1858 34.6174 22.0504C34.7754 22.0956 34.8657 22.073 34.8882 21.9827C34.9108 21.8924 34.9221 21.757 34.9221 21.5765C34.9221 21.3959 34.9559 21.2605 35.0236 21.1702C35.1139 21.0574 35.2832 20.9558 35.5315 20.8655C35.7797 20.7752 35.9264 20.7188 35.9716 20.6962L36.5471 20.3239C36.6148 20.2336 36.6148 20.1884 36.5471 20.1884C36.9533 20.2336 37.3032 20.1094 37.5966 19.816C37.8223 19.5678 37.7545 19.3421 37.3934 19.139C37.4611 19.0035 37.4273 18.8963 37.2919 18.8173C37.1565 18.7384 36.9872 18.6763 36.7841 18.6311C36.8518 18.6086 36.9815 18.6029 37.1734 18.6142C37.3652 18.6255 37.4837 18.6086 37.5289 18.5634C37.8674 18.3377 37.7884 18.1572 37.2919 18.0218C36.9082 17.9089 36.423 18.0443 35.8361 18.428ZM30.3179 48.1181C34.9672 47.3056 38.9282 45.1728 42.2007 41.7197C42.133 41.652 41.992 41.6012 41.7775 41.5673C41.5631 41.5335 41.4221 41.494 41.3544 41.4489C40.9481 41.2909 40.6773 41.2006 40.5419 41.178C40.5644 41.02 40.5362 40.8733 40.4572 40.7379C40.3782 40.6025 40.288 40.5009 40.1864 40.4332C40.0848 40.3655 39.9438 40.2752 39.7632 40.1624C39.5827 40.0495 39.4585 39.9706 39.3908 39.9254C39.3457 39.8803 39.2667 39.8126 39.1539 39.7223C39.041 39.632 38.962 39.5699 38.9169 39.5361C38.8717 39.5022 38.7871 39.4515 38.663 39.3838C38.5388 39.316 38.4429 39.2935 38.3752 39.316C38.3075 39.3386 38.1946 39.3499 38.0367 39.3499L37.9351 39.3838C37.8674 39.4063 37.8053 39.4345 37.7489 39.4684C37.6925 39.5022 37.6304 39.5361 37.5627 39.5699C37.495 39.6038 37.4499 39.6377 37.4273 39.6715C37.4047 39.7054 37.4047 39.7336 37.4273 39.7561C36.9533 39.3725 36.5471 39.1242 36.2085 39.0114C36.0957 38.9888 35.9716 38.9267 35.8361 38.8252C35.7007 38.7236 35.5822 38.6446 35.4807 38.5882C35.3791 38.5318 35.2663 38.5148 35.1421 38.5374C35.018 38.56 34.8882 38.639 34.7528 38.7744C34.64 38.8872 34.5723 39.0565 34.5497 39.2822C34.5271 39.5079 34.5045 39.6546 34.482 39.7223C34.324 39.6094 34.324 39.412 34.482 39.1298C34.64 38.8477 34.6625 38.639 34.5497 38.5035C34.482 38.3681 34.3635 38.3173 34.1942 38.3512C34.0249 38.3851 33.8895 38.4358 33.788 38.5035C33.6864 38.5712 33.5566 38.6672 33.3986 38.7913C33.2407 38.9154 33.1391 38.9888 33.094 39.0114C33.0488 39.0339 32.9529 39.096 32.8062 39.1976C32.6595 39.2991 32.5636 39.3838 32.5184 39.4515C32.4507 39.5417 32.383 39.6772 32.3153 39.8577C32.2476 40.0383 32.1912 40.1624 32.146 40.2301C32.1009 40.1398 31.9711 40.0665 31.7567 40.0101C31.5423 39.9536 31.4351 39.8916 31.4351 39.8239C31.4802 40.0495 31.5254 40.4445 31.5705 41.0088C31.6157 41.573 31.6721 42.0018 31.7398 42.2952C31.8978 42.9949 31.7624 43.5365 31.3335 43.9202C30.7242 44.4844 30.3969 44.9358 30.3518 45.2744C30.2615 45.7709 30.3969 46.0643 30.758 46.1546C30.758 46.3126 30.6677 46.5439 30.4872 46.8486C30.3066 47.1533 30.2276 47.3959 30.2502 47.5765C30.2502 47.7119 30.2728 47.8924 30.3179 48.1181Z" fill="#F1B537"/>
</g>
</g>
</g>
<defs>
<clipPath id="clip0_7_716">
<rect width="52" height="52" fill="white" transform="translate(0.560059 0.790039)"/>
</clipPath>
<clipPath id="clip1_7_716">
<rect width="52" height="52" fill="white" transform="translate(0.560059 0.790039)"/>
</clipPath>
<clipPath id="clip2_7_716">
<rect width="52" height="52" fill="white" transform="translate(0.560059 0.790039)"/>
</clipPath>
</defs>
</svg>
