<svg width="219" height="53" viewBox="0 0 219 53" fill="none" xmlns="http://www.w3.org/2000/svg">
<g clip-path="url(#clip0_7_699)">
<g clip-path="url(#clip1_7_699)">
<path d="M17.22 49.54H13.97V44.665H7.46997V49.54H4.21997V44.665C4.22083 43.8033 4.56352 42.9772 5.17283 42.3679C5.78213 41.7586 6.60828 41.4159 7.46997 41.415H13.97C14.8317 41.4159 15.6578 41.7586 16.2672 42.3679C16.8764 42.9772 17.2191 43.8033 17.22 44.665V49.54ZM49.72 49.54H46.47V44.665H39.97V49.54H36.72V44.665C36.7208 43.8033 37.0635 42.9772 37.6728 42.3679C38.2821 41.7586 39.1082 41.4159 39.97 41.415H46.47C47.3317 41.4159 48.1578 41.7586 48.7672 42.3679C49.3764 42.9772 49.7191 43.8033 49.72 44.665V49.54ZM33.47 49.54H30.22V44.665H23.72V49.54H20.47V44.665C20.4708 43.8033 20.8135 42.9772 21.4228 42.3679C22.0321 41.7586 22.8582 41.4159 23.72 41.415H30.22C31.0817 41.4159 31.9078 41.7586 32.5172 42.3679C33.1264 42.9772 33.4691 43.8033 33.47 44.665V49.54Z" fill="#F1B537"/>
<path d="M26.97 39.79C28.7649 39.79 30.22 38.335 30.22 36.54C30.22 34.7451 28.7649 33.29 26.97 33.29C25.175 33.29 23.72 34.7451 23.72 36.54C23.72 38.335 25.175 39.79 26.97 39.79Z" fill="#F1B537"/>
<path d="M10.72 39.79C12.5149 39.79 13.97 38.335 13.97 36.54C13.97 34.7451 12.5149 33.29 10.72 33.29C8.92504 33.29 7.46997 34.7451 7.46997 36.54C7.46997 38.335 8.92504 39.79 10.72 39.79Z" fill="#F1B537"/>
<path d="M43.22 39.79C45.0149 39.79 46.47 38.335 46.47 36.54C46.47 34.7451 45.0149 33.29 43.22 33.29C41.425 33.29 39.97 34.7451 39.97 36.54C39.97 38.335 41.425 39.79 43.22 39.79Z" fill="#F1B537"/>
<path d="M35.095 33.29C36.8899 33.29 38.345 31.835 38.345 30.04C38.345 28.2451 36.8899 26.79 35.095 26.79C33.3 26.79 31.845 28.2451 31.845 30.04C31.845 31.835 33.3 33.29 35.095 33.29Z" fill="#F1B537"/>
<path d="M18.845 33.29C20.6399 33.29 22.095 31.835 22.095 30.04C22.095 28.2451 20.6399 26.79 18.845 26.79C17.05 26.79 15.595 28.2451 15.595 30.04C15.595 31.835 17.05 33.29 18.845 33.29Z" fill="#F1B537"/>
<path d="M43.22 23.54H10.72C9.85824 23.5392 9.03213 23.1965 8.42283 22.5872C7.81352 21.9779 7.47083 21.1518 7.46997 20.29V7.29004C7.47083 6.42835 7.81352 5.6022 8.42283 4.9929C9.03213 4.38359 9.85824 4.0409 10.72 4.04004H43.22C44.0817 4.0409 44.9078 4.38359 45.5172 4.9929C46.1264 5.6022 46.4691 6.42835 46.47 7.29004V20.29C46.4691 21.1518 46.1264 21.9779 45.5172 22.5872C44.9078 23.1965 44.0817 23.5392 43.22 23.54ZM10.72 7.29004V20.29H43.22V7.29004H10.72Z" fill="#F1B537"/>
</g>
</g>
<defs>
<clipPath id="clip0_7_699">
<rect width="52" height="52" fill="white" transform="translate(0.969971 0.790039)"/>
</clipPath>
<clipPath id="clip1_7_699">
<rect width="52" height="52" fill="white" transform="translate(0.969971 0.790039)"/>
</clipPath>
</defs>
</svg>
