<svg width="219" height="53" viewBox="0 0 219 53" fill="none" xmlns="http://www.w3.org/2000/svg">
<g clip-path="url(#clip0_7_738)">
<g clip-path="url(#clip1_7_738)">
<path d="M12.1248 7.29004V43.04H41.3748V7.29004H12.1248ZM10.4998 4.04004H42.9998C43.4307 4.04004 43.8441 4.21124 44.1488 4.51599C44.4536 4.82074 44.6248 5.23406 44.6248 5.66504V44.665C44.6248 45.096 44.4536 45.5093 44.1488 45.8141C43.8441 46.1189 43.4307 46.29 42.9998 46.29H10.4998C10.0688 46.29 9.65545 46.1189 9.35071 45.8141C9.04596 45.5093 8.87476 45.096 8.87476 44.665V5.66504C8.87476 5.23406 9.04596 4.82074 9.35071 4.51599C9.65545 4.21124 10.0688 4.04004 10.4998 4.04004Z" fill="#F1B537"/>
<path d="M3.99976 43.04H49.4998V46.29H3.99976V43.04ZM16.9998 10.54H23.4998V15.415H16.9998V10.54Z" fill="#F1B537"/>
<path d="M20.2498 43.04H33.2498V39.79C33.2498 38.0662 32.5649 36.4128 31.3459 35.1938C30.127 33.9749 28.4736 33.29 26.7498 33.29C25.0259 33.29 23.3725 33.9749 22.1536 35.1938C20.9346 36.4128 20.2498 38.0662 20.2498 39.79V43.04ZM26.7498 30.04C29.3356 30.04 31.8156 31.0673 33.6441 32.8957C35.4725 34.7242 36.4998 37.2042 36.4998 39.79V46.29H16.9998V39.79C16.9998 37.2042 18.027 34.7242 19.8554 32.8957C21.6839 31.0673 24.1639 30.04 26.7498 30.04ZM16.9998 20.29H23.4998V25.165H16.9998V20.29ZM29.9998 10.54H36.4998V15.415H29.9998V10.54ZM29.9998 20.29H36.4998V25.165H29.9998V20.29Z" fill="#F1B537"/>
</g>
</g>
<defs>
<clipPath id="clip0_7_738">
<rect width="52" height="52" fill="white" transform="translate(0.749756 0.790039)"/>
</clipPath>
<clipPath id="clip1_7_738">
<rect width="52" height="52" fill="white" transform="translate(0.749756 0.790039)"/>
</clipPath>
</defs>
</svg>
