<svg width="218" height="53" viewBox="0 0 218 53" fill="none" xmlns="http://www.w3.org/2000/svg">
<g clip-path="url(#clip0_7_727)">
<g clip-path="url(#clip1_7_727)">
<g clip-path="url(#clip2_7_727)">
<path d="M50.6974 30.5276C50.4183 30.7426 50.0747 30.8571 49.7224 30.8526C49.4701 30.8526 49.2213 30.7938 48.9957 30.681C48.7701 30.5682 48.5738 30.4044 48.4224 30.2026C47.4429 28.886 46.1681 27.8179 44.7004 27.084C43.2327 26.3502 41.6133 25.9712 39.9724 25.9776C39.5415 25.9776 39.1281 25.8064 38.8234 25.5016C38.5186 25.1968 38.3474 24.7835 38.3474 24.3526C38.3474 23.9216 38.5186 23.5082 38.8234 23.2035C39.1281 22.8988 39.5415 22.7276 39.9724 22.7276C40.8973 22.7266 41.8027 22.4625 42.5831 21.9663C43.3635 21.47 43.9867 20.762 44.3798 19.9249C44.773 19.0877 44.9199 18.156 44.8034 17.2386C44.6869 16.3211 44.3118 15.4557 43.722 14.7434C43.1321 14.0311 42.3518 13.5012 41.4721 13.2157C40.5925 12.9302 39.6498 12.9008 38.754 13.131C37.8583 13.3611 37.0464 13.8413 36.4134 14.5155C35.7803 15.1897 35.352 16.0301 35.1787 16.9385C35.1471 17.1557 35.0719 17.3643 34.9576 17.5517C34.8432 17.7391 34.6921 17.9013 34.5133 18.0286C34.3345 18.156 34.1318 18.2457 33.9173 18.2926C33.7028 18.3395 33.4811 18.3424 33.2655 18.3012C33.0499 18.26 32.8449 18.1755 32.6628 18.0529C32.4808 17.9303 32.3254 17.7721 32.2062 17.5878C32.0869 17.4035 32.0063 17.197 31.969 16.9806C31.9318 16.7643 31.9388 16.5427 31.9896 16.3291C32.2307 15.0653 32.7685 13.8769 33.5586 12.8615C34.3488 11.8462 35.3688 11.0329 36.5346 10.4889C37.7005 9.94476 38.9789 9.68533 40.2647 9.73188C41.5504 9.77844 42.8067 10.1296 43.9302 10.7566C45.0536 11.3836 46.0121 12.2684 46.7268 13.3382C47.4415 14.4081 47.8919 15.6323 48.0409 16.9102C48.19 18.1881 48.0335 19.4832 47.5842 20.6888C47.1349 21.8944 46.4058 22.976 45.4568 23.8448C47.6653 24.8024 49.5843 26.3222 51.0224 28.2526C51.1505 28.4233 51.2437 28.6176 51.2966 28.8243C51.3495 29.031 51.3613 29.2461 51.3311 29.4574C51.3009 29.6686 51.2294 29.8719 51.1207 30.0555C51.0119 30.2391 50.8681 30.3995 50.6974 30.5276ZM39.3224 43.9541C39.5058 44.3428 39.5298 44.7878 39.3894 45.1939C39.249 45.6001 38.9552 45.9352 38.5709 46.1276C38.3467 46.2274 38.1052 46.2826 37.8599 46.2901C37.5555 46.288 37.2575 46.2014 36.9993 46.04C36.7411 45.8786 36.5328 45.6488 36.3974 45.376C35.4604 43.4592 34.004 41.844 32.1941 40.7141C30.3843 39.5844 28.2935 38.9854 26.1599 38.9854C24.0264 38.9854 21.9356 39.5844 20.1257 40.7141C18.3158 41.844 16.8595 43.4592 15.9224 45.376C15.8291 45.5682 15.699 45.7401 15.5392 45.8819C15.3795 46.0237 15.1934 46.1325 14.9915 46.2024C14.7896 46.2722 14.576 46.3015 14.3628 46.2887C14.1496 46.2759 13.941 46.2211 13.749 46.1276C13.3647 45.9352 13.0709 45.6001 12.9305 45.1939C12.79 44.7878 12.814 44.3428 12.9974 43.9541C14.5076 40.8445 17.0691 38.3693 20.2287 36.9666C18.6115 35.7271 17.4232 34.012 16.8309 32.0623C16.2386 30.1126 16.272 28.0264 16.9265 26.0967C17.581 24.167 18.8235 22.4908 20.4797 21.3038C22.1358 20.1166 24.1222 19.4782 26.1599 19.4782C28.1976 19.4782 30.184 20.1166 31.8402 21.3038C33.4963 22.4908 34.7389 24.167 35.3933 26.0967C36.0478 28.0264 36.0812 30.1126 35.489 32.0623C34.8966 34.012 33.7084 35.7271 32.0912 36.9666C35.2507 38.3693 37.8122 40.8445 39.3224 43.9541ZM26.1599 35.7276C27.4455 35.7276 28.7022 35.3464 29.7711 34.6321C30.8401 33.9179 31.6731 32.9028 32.1651 31.715C32.6571 30.5273 32.7858 29.2203 32.535 27.9595C32.2842 26.6986 31.6652 25.5405 30.7561 24.6313C29.847 23.7223 28.6889 23.1033 27.428 22.8525C26.1671 22.6016 24.8602 22.7304 23.6724 23.2224C22.4847 23.7144 21.4696 24.5474 20.7554 25.6163C20.0411 26.6853 19.6599 27.942 19.6599 29.2276C19.6653 30.9498 20.3518 32.6 21.5696 33.8179C22.7875 35.0357 24.4377 35.7222 26.1599 35.7276ZM13.9724 24.3526C13.9724 23.9216 13.8012 23.5082 13.4964 23.2035C13.1917 22.8988 12.7784 22.7276 12.3474 22.7276C11.4225 22.7266 10.5171 22.4625 9.73669 21.9663C8.95628 21.47 8.33309 20.762 7.94 19.9249C7.54687 19.0877 7.39997 18.156 7.51645 17.2386C7.63294 16.3211 8.00799 15.4557 8.59789 14.7434C9.18768 14.0311 9.968 13.5012 10.8477 13.2157C11.7273 12.9302 12.6701 12.9008 13.5658 13.131C14.4615 13.3611 15.2734 13.8413 15.9064 14.5155C16.5395 15.1897 16.9678 16.0301 17.1412 16.9385C17.1727 17.1557 17.2479 17.3643 17.3622 17.5517C17.4766 17.7391 17.6278 17.9013 17.8066 18.0286C17.9853 18.156 18.1881 18.2457 18.4026 18.2926C18.617 18.3395 18.8387 18.3424 19.0543 18.3012C19.2699 18.26 19.4749 18.1755 19.657 18.0529C19.8391 17.9303 19.9944 17.7721 20.1136 17.5878C20.2329 17.4035 20.3136 17.197 20.3508 16.9806C20.388 16.7643 20.381 16.5427 20.3302 16.3291C20.0892 15.0653 19.5514 13.8769 18.7612 12.8615C17.971 11.8462 16.9511 11.0329 15.7852 10.4889C14.6193 9.94476 13.3409 9.68533 12.0552 9.73188C10.7695 9.77844 9.51317 10.1296 8.38964 10.7566C7.26619 11.3836 6.30768 12.2684 5.59299 13.3382C4.87832 14.4081 4.42791 15.6323 4.27886 16.9102C4.12979 18.1881 4.28634 19.4832 4.73561 20.6888C5.18488 21.8944 5.91403 22.976 6.86304 23.8448C4.65449 24.8024 2.73552 26.3222 1.29742 28.2526C1.03883 28.5973 0.927801 29.0307 0.988751 29.4574C1.0497 29.884 1.27764 30.269 1.62242 30.5276C1.90153 30.7426 2.24509 30.8571 2.59742 30.8526C2.84969 30.8526 3.0985 30.7938 3.32414 30.681C3.54978 30.5682 3.74605 30.4044 3.89742 30.2026C4.87686 28.886 6.15172 27.8179 7.61939 27.084C9.08709 26.3502 10.7066 25.9712 12.3474 25.9776C12.7784 25.9776 13.1917 25.8064 13.4964 25.5016C13.8012 25.1968 13.9724 24.7835 13.9724 24.3526Z" fill="#F1B537"/>
</g>
</g>
</g>
<defs>
<clipPath id="clip0_7_727">
<rect width="52" height="52" fill="white" transform="translate(0.159912 0.790039)"/>
</clipPath>
<clipPath id="clip1_7_727">
<rect width="52" height="52" fill="white" transform="translate(0.159912 0.790039)"/>
</clipPath>
<clipPath id="clip2_7_727">
<rect width="52" height="52" fill="white" transform="translate(0.159912 0.790039)"/>
</clipPath>
</defs>
</svg>
