<svg width="20" height="21" viewBox="0 0 20 21" fill="none" xmlns="http://www.w3.org/2000/svg">
<path d="M19.3347 10.3297L11.0331 2.03241L10.4767 1.47596C10.3499 1.35002 10.1784 1.27933 9.9997 1.27933C9.82099 1.27933 9.64953 1.35002 9.52275 1.47596L0.664737 10.3297C0.534824 10.4591 0.432151 10.6132 0.362779 10.7829C0.293407 10.9527 0.258743 11.1346 0.260831 11.3179C0.269425 12.0742 0.898917 12.6779 1.65517 12.6779H2.56825V19.6754H17.4311V12.6779H18.3636C18.7309 12.6779 19.0768 12.534 19.3368 12.274C19.4648 12.1464 19.5662 11.9947 19.6352 11.8276C19.7042 11.6606 19.7393 11.4815 19.7386 11.3008C19.7386 10.9355 19.5946 10.5896 19.3347 10.3297ZM11.2028 18.1285H8.79657V13.7457H11.2028V18.1285ZM15.8843 11.131V18.1285H12.5778V13.2301C12.5778 12.7553 12.1933 12.3707 11.7184 12.3707H8.28095C7.80614 12.3707 7.42157 12.7553 7.42157 13.2301V18.1285H4.11513V11.131H2.05263L10.0018 3.18827L10.4981 3.68456L17.9489 11.131H15.8843Z" fill="#F1B537"/>
</svg>
