<svg width="30" height="24" viewBox="0 0 30 24" fill="none" xmlns="http://www.w3.org/2000/svg">
<g clip-path="url(#clip0_7_506)">
<g clip-path="url(#clip1_7_506)">
<g clip-path="url(#clip2_7_506)">
<path d="M28.1981 13.7764C28.5025 13.7764 28.7944 13.6555 29.0096 13.4403C29.2249 13.2251 29.3458 12.9331 29.3458 12.6288C29.3458 12.3244 29.2249 12.0325 29.0096 11.8172C28.7944 11.602 28.5025 11.4811 28.1981 11.4811V13.7764ZM1.8016 12.6288L0.993007 11.8202C0.877606 11.9264 0.785494 12.0555 0.722489 12.1991C0.659483 12.3428 0.626953 12.498 0.626953 12.6549C0.626953 12.8117 0.659483 12.9669 0.722489 13.1106C0.785494 13.2542 0.877606 13.3833 0.993007 13.4895L1.8016 12.6288ZM11.3221 22.6709C11.4344 22.7717 11.5658 22.849 11.7084 22.8983C11.851 22.9477 12.002 22.9681 12.1526 22.9584C12.3032 22.9487 12.4503 22.909 12.5854 22.8418C12.7205 22.7745 12.8408 22.6809 12.9393 22.5666C13.141 22.3398 13.2447 22.0422 13.2276 21.7391C13.2105 21.4361 13.074 21.1521 12.848 20.9494L11.3221 22.6709ZM12.9001 3.10828C13.039 3.01404 13.1555 2.8905 13.2414 2.74636C13.3274 2.60221 13.3806 2.44098 13.3975 2.27402C13.4144 2.10705 13.3944 1.93842 13.339 1.78C13.2837 1.62158 13.1942 1.47724 13.077 1.35713C12.9598 1.23702 12.8177 1.14408 12.6607 1.08485C12.5037 1.02562 12.3356 1.00154 12.1683 1.01432C12.001 1.02709 11.8385 1.0764 11.6923 1.15878C11.5461 1.24116 11.4197 1.3546 11.3221 1.4911L12.9001 3.10828ZM27.8982 11.4811H1.8016V13.7764H27.9503C28.016 13.7764 28.0791 13.7503 28.1255 13.7039C28.172 13.6574 28.1981 13.5944 28.1981 13.5286V11.7289C28.1981 11.6632 28.172 11.6001 28.1255 11.5537C28.0791 11.5072 28.016 11.4811 27.9503 11.4811H27.8982ZM1.2408 13.6591L11.1786 22.4883C11.2018 22.5136 11.2301 22.5338 11.2615 22.5477C11.2929 22.5615 11.3269 22.5686 11.3612 22.5686C11.3955 22.5686 11.4295 22.5615 11.4609 22.5477C11.4924 22.5338 11.5206 22.5136 11.5438 22.4883L12.7175 21.1842C12.7428 21.161 12.763 21.1327 12.7769 21.1013C12.7907 21.0699 12.7978 21.0359 12.7978 21.0016C12.7978 20.9672 12.7907 20.9333 12.7769 20.9019C12.763 20.8704 12.7428 20.8422 12.7175 20.819L2.57106 11.768L1.21472 13.3591C1.18753 13.4057 1.17544 13.4595 1.18011 13.5132C1.18478 13.5669 1.20598 13.6179 1.2408 13.6591ZM2.62323 13.4374L12.7567 3.30391C12.8053 3.25296 12.8324 3.18524 12.8324 3.1148C12.8324 3.04437 12.8053 2.97665 12.7567 2.9257L11.5177 1.62152C11.4668 1.57289 11.399 1.54576 11.3286 1.54576C11.2582 1.54576 11.1904 1.57289 11.1395 1.62152L1.18863 11.6246C1.14 11.6755 1.11287 11.7432 1.11287 11.8137C1.11287 11.8841 1.14 11.9518 1.18863 12.0028L2.62323 13.4374Z" fill="#F1B537" stroke="#F1B537" stroke-width="1.30418" stroke-miterlimit="10"/>
</g>
</g>
</g>
<defs>
<clipPath id="clip0_7_506">
<rect width="30" height="23.11" fill="white" transform="translate(0 0.5)"/>
</clipPath>
<clipPath id="clip1_7_506">
<rect width="30" height="23.11" fill="white" transform="translate(0 0.5)"/>
</clipPath>
<clipPath id="clip2_7_506">
<rect width="29.996" height="23.11" fill="white" transform="translate(0.00195312 0.5)"/>
</clipPath>
</defs>
</svg>
