<svg width="31" height="20" viewBox="0 0 31 20" fill="none" xmlns="http://www.w3.org/2000/svg">
<g clip-path="url(#clip0_7_334)">
<g clip-path="url(#clip1_7_334)">
<g clip-path="url(#clip2_7_334)">
<path d="M1.88614 11.2192C1.6326 11.2192 1.38944 11.1185 1.21016 10.9392C1.03088 10.7599 0.93016 10.5168 0.93016 10.2632C0.93016 10.0097 1.03088 9.76653 1.21016 9.58725C1.38944 9.40797 1.6326 9.30725 1.88614 9.30725V11.2192ZM23.8737 10.2632L24.5473 9.5897C24.6434 9.67821 24.7201 9.7857 24.7726 9.90537C24.8251 10.025 24.8522 10.1543 24.8522 10.285C24.8522 10.4156 24.8251 10.5449 24.7726 10.6646C24.7201 10.7842 24.6434 10.8917 24.5473 10.9802L23.8737 10.2632ZM15.9434 18.6281C15.8498 18.712 15.7404 18.7764 15.6217 18.8175C15.5029 18.8586 15.3771 18.8756 15.2516 18.8676C15.1262 18.8595 15.0036 18.8264 14.8911 18.7704C14.7786 18.7143 14.6784 18.6364 14.5964 18.5412C14.4283 18.3522 14.3419 18.1044 14.3562 17.8519C14.3704 17.5995 14.4841 17.3629 14.6724 17.1941L15.9434 18.6281ZM14.6289 2.33293C14.5133 2.25443 14.4162 2.15152 14.3447 2.03145C14.2731 1.91139 14.2287 1.77708 14.2147 1.63801C14.2006 1.49893 14.2172 1.35846 14.2633 1.22651C14.3095 1.09455 14.384 0.974311 14.4816 0.874266C14.5792 0.77422 14.6976 0.696801 14.8284 0.647463C14.9592 0.598126 15.0992 0.578071 15.2386 0.588711C15.3779 0.599351 15.5133 0.640428 15.6351 0.709047C15.7569 0.777666 15.8621 0.872157 15.9434 0.985862L14.6289 2.33293ZM2.136 9.30725H23.8737V11.2192H2.09255C2.0378 11.2192 1.98531 11.1975 1.9466 11.1588C1.90789 11.1201 1.88614 11.0676 1.88614 11.0128V9.51366C1.88614 9.45891 1.90789 9.40641 1.9466 9.36771C1.98531 9.329 2.0378 9.30725 2.09255 9.30725H2.136ZM24.3409 11.1214L16.0629 18.476C16.0436 18.4971 16.0201 18.5139 15.9939 18.5254C15.9677 18.5369 15.9394 18.5428 15.9108 18.5428C15.8822 18.5428 15.8539 18.5369 15.8278 18.5254C15.8016 18.5139 15.7781 18.4971 15.7587 18.476L14.781 17.3896C14.76 17.3703 14.7431 17.3468 14.7316 17.3206C14.7201 17.2944 14.7142 17.2662 14.7142 17.2376C14.7142 17.209 14.7201 17.1807 14.7316 17.1545C14.7431 17.1283 14.76 17.1048 14.781 17.0855L23.2328 9.54625L24.3626 10.8716C24.3852 10.9104 24.3953 10.9552 24.3914 11C24.3875 11.0447 24.3699 11.0871 24.3409 11.1214ZM23.1893 10.9368L14.7484 2.49588C14.7079 2.45344 14.6853 2.39703 14.6853 2.33836C14.6853 2.27969 14.7079 2.22328 14.7484 2.18084L15.7805 1.0945C15.8229 1.05399 15.8793 1.03139 15.938 1.03139C15.9967 1.03139 16.0531 1.05399 16.0955 1.0945L24.3843 9.42675C24.4248 9.46919 24.4474 9.5256 24.4474 9.58427C24.4474 9.64294 24.4248 9.69935 24.3843 9.74179L23.1893 10.9368Z" fill="#F1B537" stroke="#F1B537" stroke-width="1.08634" stroke-miterlimit="10"/>
</g>
</g>
</g>
<defs>
<clipPath id="clip0_7_334">
<rect width="30" height="19.25" fill="white" transform="matrix(-1 0 0 1 30.38 0.160156)"/>
</clipPath>
<clipPath id="clip1_7_334">
<rect width="30" height="19.25" fill="white" transform="matrix(-1 0 0 1 30.38 0.160156)"/>
</clipPath>
<clipPath id="clip2_7_334">
<rect width="24.9859" height="19.25" fill="white" transform="matrix(-1 0 0 1 25.3729 0.160156)"/>
</clipPath>
</defs>
</svg>
