<svg width="25" height="15" viewBox="0 0 25 15" fill="none" xmlns="http://www.w3.org/2000/svg">
<g clip-path="url(#clip0_7_551)">
<g clip-path="url(#clip1_7_551)">
<path d="M5.88197 6.32335C5.44881 6.32335 5.09766 6.67449 5.09766 7.10766C5.09766 7.54083 5.44881 7.89198 5.88197 7.89198V6.32335ZM23.9212 7.10766L24.4758 7.66225C24.6285 7.50951 24.7115 7.30054 24.7052 7.08463C24.6989 6.86871 24.6037 6.66497 24.4423 6.52146L23.9212 7.10766ZM17.3834 0.246947C17.0597 -0.040832 16.5639 -0.0116705 16.2762 0.31208C15.9884 0.635832 16.0175 1.13158 16.3413 1.41935L17.3834 0.246947ZM16.3078 13.6119C16.0014 13.9181 16.0014 14.4148 16.3078 14.7211C16.614 15.0274 17.1107 15.0274 17.4169 14.7211L16.3078 13.6119ZM5.88197 7.89198H23.9212V6.32335H5.88197V7.89198ZM24.4423 6.52146L17.3834 0.246947L16.3413 1.41935L23.4001 7.69387L24.4423 6.52146ZM23.3666 6.55307L16.3078 13.6119L17.4169 14.7211L24.4758 7.66225L23.3666 6.55307Z" fill="#F1B537"/>
</g>
</g>
<defs>
<clipPath id="clip0_7_551">
<rect width="25" height="15" fill="white"/>
</clipPath>
<clipPath id="clip1_7_551">
<rect width="20" height="15" fill="white" transform="translate(5)"/>
</clipPath>
</defs>
</svg>
