<svg width="19" height="15" viewBox="0 0 19 15" fill="none" xmlns="http://www.w3.org/2000/svg">
<g clip-path="url(#clip0_6_206)">
<g clip-path="url(#clip1_6_206)">
<g clip-path="url(#clip2_6_206)">
<path d="M1.64011 8.323C1.45746 8.323 1.28229 8.25044 1.15313 8.12129C1.02397 7.99213 0.951416 7.81696 0.951416 7.6343C0.951416 7.45165 1.02397 7.27648 1.15313 7.14732C1.28229 7.01817 1.45746 6.94561 1.64011 6.94561V8.323ZM17.4801 7.6343L17.9732 7.14909C18.0404 7.21404 18.0938 7.29186 18.1303 7.37791C18.1668 7.46396 18.1857 7.55648 18.1857 7.64996C18.1857 7.74343 18.1668 7.83595 18.1303 7.922C18.0938 8.00805 18.0404 8.08587 17.9732 8.15083L17.4801 7.6343ZM11.7436 13.6604C11.6066 13.7818 11.427 13.8438 11.2443 13.8328C11.0615 13.8218 10.8907 13.7387 10.7692 13.6017C10.6478 13.4647 10.5858 13.2851 10.5968 13.1024C10.6078 12.9196 10.6909 12.7488 10.8279 12.6273L11.7436 13.6604ZM10.7966 1.92126C10.7329 1.85703 10.6825 1.78087 10.6482 1.69714C10.6139 1.61342 10.5964 1.52375 10.5968 1.43328C10.5975 1.25055 10.6708 1.0756 10.8005 0.946913C10.9303 0.818226 11.1058 0.746342 11.2885 0.747076C11.4713 0.74781 11.6462 0.821101 11.7749 0.950826L10.7966 1.92126ZM1.78881 6.94561H17.4801V8.323H1.82794C1.78911 8.3211 1.75239 8.30483 1.7249 8.27734C1.69741 8.24986 1.68114 8.21313 1.67924 8.1743V7.0943C1.67937 7.0611 1.69006 7.0288 1.70975 7.00207C1.72945 6.97534 1.75713 6.95557 1.78881 6.94561ZM17.8245 8.25257L11.861 13.5508C11.8304 13.58 11.7898 13.5963 11.7475 13.5963C11.7052 13.5963 11.6646 13.58 11.634 13.5508L10.9297 12.7682C10.901 12.739 10.8849 12.6996 10.8849 12.6587C10.8849 12.6177 10.901 12.5783 10.9297 12.5491L17.0105 7.14126L17.7932 8.05691C17.8215 8.07998 17.8404 8.11268 17.8461 8.14877C17.8519 8.18486 17.8442 8.22181 17.8245 8.25257ZM16.9949 8.11952L10.9062 2.03865C10.8801 2.00657 10.8659 1.9665 10.8659 1.92517C10.8659 1.88385 10.8801 1.84378 10.9062 1.8117L11.6888 1.02909C11.7194 0.999904 11.76 0.983621 11.8023 0.983621C11.8446 0.983621 11.8852 0.999904 11.9158 1.02909L17.8871 7.00039C17.9163 7.03096 17.9325 7.0716 17.9325 7.11387C17.9325 7.15613 17.9163 7.19678 17.8871 7.22735L16.9949 8.11952Z" fill="#F1B537" stroke="#F1B537" stroke-width="0.782609" stroke-miterlimit="10"/>
</g>
</g>
</g>
<defs>
<clipPath id="clip0_6_206">
<rect width="18" height="13.86" fill="white" transform="translate(0.560059 0.359863)"/>
</clipPath>
<clipPath id="clip1_6_206">
<rect width="18" height="13.86" fill="white" transform="translate(0.560059 0.359863)"/>
</clipPath>
<clipPath id="clip2_6_206">
<rect width="18" height="13.8678" fill="white" transform="translate(0.560059 0.355957)"/>
</clipPath>
</defs>
</svg>
