<svg width="30" height="20" viewBox="0 0 30 20" fill="none" xmlns="http://www.w3.org/2000/svg">
<g clip-path="url(#clip0_7_358)">
<g clip-path="url(#clip1_7_358)">
<g clip-path="url(#clip2_7_358)">
<path d="M6.50627 11.0592C6.25273 11.0592 6.00957 10.9584 5.83029 10.7792C5.65101 10.5999 5.55029 10.3567 5.55029 10.1032C5.55029 9.84963 5.65101 9.60647 5.83029 9.42719C6.00957 9.24791 6.25273 9.14719 6.50627 9.14719V11.0592ZM28.4939 10.1032L29.1783 9.42964C29.2716 9.51981 29.3458 9.62783 29.3964 9.74728C29.4471 9.86672 29.4732 9.99515 29.4732 10.1249C29.4732 10.2547 29.4471 10.3831 29.3964 10.5025C29.3458 10.622 29.2716 10.73 29.1783 10.8202L28.4939 10.1032ZM20.531 18.468C20.3408 18.6366 20.0915 18.7227 19.8378 18.7074C19.5842 18.6921 19.347 18.5767 19.1785 18.3865C19.0099 18.1964 18.9238 17.9471 18.9391 17.6934C18.9544 17.4398 19.0698 17.2026 19.2599 17.034L20.531 18.468ZM19.2165 2.17287C19.128 2.08371 19.058 1.97799 19.0104 1.86177C18.9628 1.74555 18.9386 1.62109 18.9391 1.4955C18.9401 1.24185 19.0418 0.999004 19.2219 0.820372C19.402 0.64174 19.6457 0.541958 19.8993 0.542976C20.1529 0.543995 20.3958 0.645731 20.5744 0.825804L19.2165 2.17287ZM6.71268 9.14719H28.4939V11.0592H6.767C6.71311 11.0565 6.66212 11.0339 6.62397 10.9958C6.58582 10.9576 6.56323 10.9066 6.56059 10.8528V9.3536C6.56077 9.30751 6.57561 9.26267 6.60295 9.22557C6.63028 9.18847 6.66871 9.16102 6.71268 9.14719ZM28.9718 10.9614L20.6939 18.3159C20.6515 18.3564 20.5951 18.379 20.5364 18.379C20.4777 18.379 20.4213 18.3564 20.3789 18.3159L19.4012 17.2296C19.3614 17.189 19.3391 17.1344 19.3391 17.0775C19.3391 17.0206 19.3614 16.966 19.4012 16.9254L27.8421 9.41878L28.9284 10.6898C28.9677 10.7218 28.9939 10.7672 29.0019 10.8173C29.01 10.8674 28.9992 10.9187 28.9718 10.9614ZM27.8203 10.7767L19.3686 2.33582C19.3324 2.29129 19.3127 2.23567 19.3127 2.1783C19.3127 2.12093 19.3324 2.06531 19.3686 2.02078L20.4549 0.934438C20.4974 0.893929 20.5538 0.871326 20.6124 0.871326C20.6711 0.871326 20.7275 0.893929 20.77 0.934438L29.0588 9.22324C29.0993 9.26567 29.1219 9.32209 29.1219 9.38076C29.1219 9.43942 29.0993 9.49584 29.0588 9.53828L27.8203 10.7767Z" fill="#F1B537" stroke="#F1B537" stroke-width="1.08634" stroke-miterlimit="10"/>
</g>
</g>
</g>
<defs>
<clipPath id="clip0_7_358">
<rect width="30" height="19.25" fill="white"/>
</clipPath>
<clipPath id="clip1_7_358">
<rect width="30" height="19.25" fill="white"/>
</clipPath>
<clipPath id="clip2_7_358">
<rect width="24.9859" height="19.25" fill="white" transform="translate(5.00708)"/>
</clipPath>
</defs>
</svg>
