<svg width="19" height="15" viewBox="0 0 19 15" fill="none" xmlns="http://www.w3.org/2000/svg">
<g clip-path="url(#clip0_7_306)">
<g clip-path="url(#clip1_7_306)">
<g clip-path="url(#clip2_7_306)">
<path d="M1.42014 8.16284C1.23749 8.16284 1.06232 8.09029 0.93316 7.96113C0.804004 7.83197 0.731445 7.6568 0.731445 7.47415C0.731445 7.29149 0.804004 7.11632 0.93316 6.98717C1.06232 6.85801 1.23749 6.78545 1.42014 6.78545V8.16284ZM17.2601 7.47415L17.7532 6.98893C17.8204 7.05389 17.8739 7.13171 17.9104 7.21776C17.9469 7.30381 17.9657 7.39633 17.9657 7.4898C17.9657 7.58328 17.9469 7.67579 17.9104 7.76184C17.8739 7.84789 17.8204 7.92571 17.7532 7.99067L17.2601 7.47415ZM11.5236 13.5002C11.3866 13.6217 11.207 13.6837 11.0243 13.6727C10.8416 13.6617 10.6707 13.5785 10.5493 13.4415C10.4278 13.3046 10.3658 13.1249 10.3768 12.9422C10.3878 12.7595 10.471 12.5886 10.608 12.4672L11.5236 13.5002ZM10.5767 1.76111C10.5129 1.69687 10.4625 1.62072 10.4282 1.53699C10.3939 1.45326 10.3765 1.3636 10.3768 1.27312C10.3776 1.09039 10.4509 0.915445 10.5806 0.786757C10.7103 0.658069 10.8858 0.586186 11.0686 0.58692C11.2513 0.587653 11.4262 0.660945 11.5549 0.79067L10.5767 1.76111ZM1.56884 6.78545H17.2601V8.16284H1.60797C1.56914 8.16095 1.53241 8.14467 1.50493 8.11719C1.47744 8.0897 1.46117 8.05297 1.45927 8.01415V6.93415C1.4594 6.90095 1.47009 6.86865 1.48978 6.84192C1.50948 6.81519 1.53716 6.79541 1.56884 6.78545ZM17.6045 8.09241L11.641 13.3907C11.6104 13.4199 11.5698 13.4361 11.5275 13.4361C11.4853 13.4361 11.4446 13.4199 11.4141 13.3907L10.7097 12.6081C10.681 12.5788 10.665 12.5395 10.665 12.4985C10.665 12.4575 10.681 12.4182 10.7097 12.3889L16.7906 6.98111L17.5732 7.89676C17.6015 7.91982 17.6204 7.95252 17.6262 7.98861C17.6319 8.0247 17.6242 8.06165 17.6045 8.09241ZM16.7749 7.95937L10.6862 1.8785C10.6602 1.84642 10.646 1.80635 10.646 1.76502C10.646 1.72369 10.6602 1.68362 10.6862 1.65154L11.4688 0.868931C11.4994 0.839748 11.5401 0.823465 11.5823 0.823465C11.6246 0.823465 11.6652 0.839748 11.6958 0.868931L17.6671 6.84024C17.6963 6.87081 17.7126 6.91145 17.7126 6.95371C17.7126 6.99598 17.6963 7.03662 17.6671 7.06719L16.7749 7.95937Z" fill="#F1B537" stroke="#F1B537" stroke-width="0.782609" stroke-miterlimit="10"/>
</g>
</g>
</g>
<defs>
<clipPath id="clip0_7_306">
<rect width="18" height="13.86" fill="white" transform="translate(0.340088 0.199707)"/>
</clipPath>
<clipPath id="clip1_7_306">
<rect width="18" height="13.86" fill="white" transform="translate(0.340088 0.199707)"/>
</clipPath>
<clipPath id="clip2_7_306">
<rect width="18" height="13.8678" fill="white" transform="translate(0.340088 0.195801)"/>
</clipPath>
</defs>
</svg>
