<svg width="30" height="24" viewBox="0 0 30 24" fill="none" xmlns="http://www.w3.org/2000/svg">
<g clip-path="url(#clip0_7_510)">
<g clip-path="url(#clip1_7_510)">
<g clip-path="url(#clip2_7_510)">
<path d="M1.80197 13.7767C1.49759 13.7767 1.20567 13.6558 0.990443 13.4406C0.775212 13.2254 0.654297 12.9335 0.654297 12.6291C0.654297 12.3247 0.775212 12.0328 0.990443 11.8175C1.20567 11.6023 1.49759 11.4814 1.80197 11.4814V13.7767ZM28.1985 12.6291L29.0201 11.8205C29.1321 11.9287 29.2212 12.0584 29.2821 12.2018C29.3429 12.3452 29.3743 12.4994 29.3743 12.6552C29.3743 12.8109 29.3429 12.9651 29.2821 13.1085C29.2212 13.2519 29.1321 13.3816 29.0201 13.4898L28.1985 12.6291ZM18.6389 22.6712C18.4106 22.8736 18.1113 22.9769 17.8068 22.9586C17.5023 22.9403 17.2175 22.8017 17.0152 22.5734C16.8128 22.3451 16.7095 22.0458 16.7278 21.7413C16.7462 21.4368 16.8847 21.1521 17.113 20.9497L18.6389 22.6712ZM17.0608 3.10858C16.9546 3.00154 16.8706 2.87463 16.8134 2.7351C16.7563 2.59557 16.7272 2.44616 16.7278 2.29538C16.729 1.99088 16.8512 1.69933 17.0674 1.48488C17.2835 1.27043 17.5761 1.15064 17.8806 1.15186C18.1851 1.15309 18.4766 1.27522 18.6911 1.4914L17.0608 3.10858ZM2.04977 11.4814H28.1985V13.7767H2.11497C2.05028 13.7736 1.98907 13.7465 1.94327 13.7007C1.89746 13.6549 1.87034 13.5936 1.86718 13.529V11.7292C1.8674 11.6739 1.88521 11.62 1.91803 11.5755C1.95085 11.5309 1.99698 11.498 2.04977 11.4814ZM28.7723 13.6594L18.8345 22.4886C18.7836 22.5373 18.7158 22.5644 18.6454 22.5644C18.575 22.5644 18.5072 22.5373 18.4563 22.4886L17.2825 21.1845C17.2348 21.1357 17.208 21.0702 17.208 21.0019C17.208 20.9336 17.2348 20.8681 17.2825 20.8193L27.416 11.8074L28.7202 13.3333C28.7674 13.3718 28.7988 13.4263 28.8085 13.4864C28.8181 13.5465 28.8052 13.6081 28.7723 13.6594ZM27.3899 13.4377L17.2434 3.30421C17.2 3.25075 17.1763 3.18397 17.1763 3.1151C17.1763 3.04623 17.2 2.97946 17.2434 2.926L18.5476 1.62182C18.5985 1.57319 18.6663 1.54606 18.7367 1.54606C18.8071 1.54606 18.8749 1.57319 18.9258 1.62182L28.8767 11.5727C28.9253 11.6236 28.9524 11.6914 28.9524 11.7618C28.9524 11.8322 28.9253 11.8999 28.8767 11.9509L27.3899 13.4377Z" fill="#F1B537" stroke="#F1B537" stroke-width="1.30418" stroke-miterlimit="10"/>
</g>
</g>
</g>
<defs>
<clipPath id="clip0_7_510">
<rect width="30" height="23.11" fill="white" transform="translate(0 0.5)"/>
</clipPath>
<clipPath id="clip1_7_510">
<rect width="30" height="23.11" fill="white" transform="translate(0 0.5)"/>
</clipPath>
<clipPath id="clip2_7_510">
<rect width="29.996" height="23.11" fill="white" transform="translate(0.00195312 0.5)"/>
</clipPath>
</defs>
</svg>
