<svg width="26" height="15" viewBox="0 0 26 15" fill="none" xmlns="http://www.w3.org/2000/svg">
<g clip-path="url(#clip0_2_624)">
<g clip-path="url(#clip1_2_624)">
<path d="M5.94252 6.4135C5.50935 6.4135 5.1582 6.76464 5.1582 7.19781C5.1582 7.63097 5.50935 7.98212 5.94252 7.98212V6.4135ZM23.9817 7.19781L24.5363 7.7524C24.6891 7.59966 24.7721 7.39069 24.7657 7.17477C24.7594 6.95886 24.6642 6.75512 24.5028 6.61161L23.9817 7.19781ZM17.444 0.337096C17.1202 0.0493169 16.6245 0.0784784 16.3367 0.402229C16.0489 0.725981 16.0781 1.22172 16.4018 1.5095L17.444 0.337096ZM16.3683 13.702C16.062 14.0083 16.062 14.505 16.3683 14.8112C16.6746 15.1175 17.1712 15.1175 17.4775 14.8112L16.3683 13.702ZM5.94252 7.98212H23.9817V6.4135H5.94252V7.98212ZM24.5028 6.61161L17.444 0.337096L16.4018 1.5095L23.4607 7.78402L24.5028 6.61161ZM23.4272 6.64322L16.3683 13.702L17.4775 14.8112L24.5363 7.7524L23.4272 6.64322Z" fill="#F1B537"/>
</g>
</g>
<defs>
<clipPath id="clip0_2_624">
<rect width="25" height="14.06" fill="white" transform="translate(0.0600586 0.0899658)"/>
</clipPath>
<clipPath id="clip1_2_624">
<rect width="20" height="15" fill="white" transform="translate(5.06006 0.0899658)"/>
</clipPath>
</defs>
</svg>
