<svg width="6" height="14" viewBox="0 0 6 14" fill="none" xmlns="http://www.w3.org/2000/svg">
<g clip-path="url(#clip0_2_587)">
<path d="M0.13452 1.64234L4.91646 7.24058L0.13452 12.8388C0.0489101 12.9388 0.000982105 13.0731 0.000982113 13.2129C0.00098212 13.3527 0.0489102 13.487 0.13452 13.587C0.176102 13.6355 0.225732 13.6739 0.280507 13.7002C0.335282 13.7265 0.394099 13.74 0.453512 13.74C0.512926 13.74 0.571743 13.7265 0.626517 13.7002C0.681292 13.6739 0.730923 13.6355 0.772504 13.587L5.86067 7.6315C5.95 7.52691 6 7.38663 6 7.24058C6 7.09453 5.95 6.95426 5.86067 6.84967L0.773486 0.894119C0.731873 0.845346 0.68212 0.806581 0.627164 0.780111C0.572208 0.753642 0.513162 0.740005 0.453512 0.740005C0.393861 0.740005 0.334815 0.753642 0.279859 0.780111C0.224903 0.806581 0.17515 0.845346 0.133538 0.894119C0.0479275 0.994141 -7.841e-09 1.12841 0 1.26823C7.842e-09 1.40805 0.0489096 1.54232 0.13452 1.64234Z" fill="#878D92"/>
</g>
<defs>
<clipPath id="clip0_2_587">
<rect width="6" height="13" fill="white" transform="translate(0 0.740005)"/>
</clipPath>
</defs>
</svg>
